<?xml version="1.0" encoding="UTF-8" standalone="no"?>
<svg
   xmlns:dc="http://purl.org/dc/elements/1.1/"
   xmlns:cc="http://creativecommons.org/ns#"
   xmlns:rdf="http://www.w3.org/1999/02/22-rdf-syntax-ns#"
   xmlns:svg="http://www.w3.org/2000/svg"
   xmlns="http://www.w3.org/2000/svg"
   xmlns:sodipodi="http://sodipodi.sourceforge.net/DTD/sodipodi-0.dtd"
   xmlns:inkscape="http://www.inkscape.org/namespaces/inkscape"
   viewBox="0 0 1043.63 592.71002"
   version="1.1"
   id="svg4913"
   height="1.6360248in"
   sodipodi:docname="Artboard 1 trimmed.svg"
   inkscape:version="0.92.4 (5da689c313, 2019-01-14)">
  <metadata
     id="metadata4919">
    <rdf:RDF>
      <cc:Work
         rdf:about="">
        <dc:format>image/svg+xml</dc:format>
        <dc:type
           rdf:resource="http://purl.org/dc/dcmitype/StillImage" />
        <dc:title></dc:title>
      </cc:Work>
    </rdf:RDF>
  </metadata>
  <defs
     id="defs4917" />
  <sodipodi:namedview
     pagecolor="#ffffff"
     bordercolor="#666666"
     borderopacity="1"
     objecttolerance="10"
     gridtolerance="10"
     guidetolerance="10"
     inkscape:pageopacity="0"
     inkscape:pageshadow="2"
     inkscape:window-width="1920"
     inkscape:window-height="1017"
     id="namedview4915"
     showgrid="false"
     fit-margin-top="0"
     fit-margin-left="0"
     fit-margin-right="0"
     fit-margin-bottom="0"
     inkscape:zoom="0.35133464"
     inkscape:cx="1384.5118"
     inkscape:cy="118.15321"
     inkscape:window-x="-8"
     inkscape:window-y="-8"
     inkscape:window-maximized="1"
     inkscape:current-layer="svg4913" />
  <path
     d="m 588.67,296.36 c 0,163.67 -131.78,296.35 -294.33,296.35 C 131.79,592.71 0,460.03 0,296.36 0,132.69 131.78,0 294.34,0 456.9,0 588.67,132.69 588.67,296.36"
     id="path4905"
     inkscape:connector-curvature="0" />
  <path
     d="m 911.56,296.36 c 0,154.06 -65.89,279 -147.17,279 -81.28,0 -147.17,-124.94 -147.17,-279 0,-154.06 65.88,-279 147.16,-279 81.28,0 147.17,124.9 147.17,279"
     id="path4907"
     inkscape:connector-curvature="0" />
  <path
     d="m 1043.63,296.36 c 0,138 -23.17,249.94 -51.76,249.94 -28.59,0 -51.75,-111.91 -51.75,-249.94 0,-138.03 23.17,-249.94 51.75,-249.94 28.58,0 51.76,111.9 51.76,249.94"
     id="path4909"
     inkscape:connector-curvature="0" />
  <path
     d="M 1338.99,-279.9 H 1042.7 v 0.25 H 1.51 v -0.25 H -294.78 V 870.17 h 119.51 v 0.44 h 1410.41 v -0.44 h 103.85 z M 1042.7,16.64 V 574.31 H 1.51 V 16.64 Z"
     id="path4911"
     inkscape:connector-curvature="0"
     style="fill:none" />
</svg>
